<?xml version="1.0" encoding="iso-8859-1"?>
<!-- Uploaded to: SVG Repo, www.svgrepo.com, Generator: SVG Repo Mixer Tools -->
<svg version="1.1" id="Layer_1" xmlns="http://www.w3.org/2000/svg" xmlns:xlink="http://www.w3.org/1999/xlink" 
	 viewBox="0 0 490 490" xml:space="preserve">
<g>
	<g>
		<g id="XMLID_111_">
			<g>
				<path style="fill:#FFFFFF;" d="M480,80v390c0,5.5-4.5,10-10,10H20c-5.5,0-10-4.5-10-10V80H480z"/>
				<path style="fill:#FFD248;" d="M480,20v60H10V20c0-5.5,4.5-10,10-10h450C475.5,10,480,14.5,480,20z"/>
			</g>
			<g>
				<path style="fill:#231F20;" d="M470,0H20C8.972,0,0,8.972,0,20v450c0,11.028,8.972,20,20,20h450c11.028,0,20-8.972,20-20V20
					C490,8.972,481.028,0,470,0z M470,20v50H20V20H470z M20,470V90h450v380H20z"/>
				<g>
					<rect x="40" y="35" style="fill:#231F20;" width="35" height="20"/>
				</g>
				<g>
					<rect x="90" y="35" style="fill:#231F20;" width="35" height="20"/>
				</g>
				<g>
					<rect x="415" y="35" style="fill:#231F20;" width="35" height="20"/>
				</g>
			</g>
		</g>
	</g>
	<g id="XMLID_112_">
		<g>
			<path style="fill:#AFB6BB;" d="M380,240v40c0,5.5-4.5,10-10,10h-24.4c-2.1,7-4.8,13.7-8.2,19.9l17.2,17.3
				c3.9,3.9,3.9,10.2,0,14.1l-28.3,28.3c-3.9,3.9-10.2,3.9-14.1,0l-17.3-17.2c-6.2,3.4-12.9,6.1-19.9,8.2V385c0,5.5-4.5,10-10,10
				h-40c-5.5,0-10-4.5-10-10v-24.4c-7-2.1-13.7-4.8-19.9-8.2l-17.3,17.2c-3.9,3.9-10.2,3.9-14.1,0l-28.3-28.3
				c-3.9-3.9-3.9-10.2,0-14.1l17.2-17.3c-3.4-6.2-6.1-12.9-8.2-19.9H120c-5.5,0-10-4.5-10-10v-40c0-5.5,4.5-10,10-10h24.4
				c2.1-7,4.8-13.7,8.2-19.9l-17.2-17.3c-3.9-3.9-3.9-10.2,0-14.1l28.3-28.3c3.9-3.9,10.2-3.9,14.1,0l17.3,17.2
				c6.2-3.4,12.9-6.1,19.9-8.2V135c0-5.5,4.5-10,10-10h40c5.5,0,10,4.5,10,10v24.4c7,2.1,13.7,4.8,19.9,8.2l17.3-17.2
				c3.9-3.9,10.2-3.9,14.1,0l28.3,28.3c3.9,3.9,3.9,10.2,0,14.1l-17.2,17.3c3.4,6.2,6.1,12.9,8.2,19.9H370
				C375.5,230,380,234.5,380,240z"/>
		</g>
		<g>
			<g>
				<path style="fill:#231F20;" d="M265,405h-40c-11.028,0-20-8.972-20-20v-17.193c-2.733-1.003-5.383-2.089-7.94-3.253
					l-12.209,12.138c-3.754,3.754-8.769,5.833-14.101,5.833s-10.347-2.079-14.122-5.854l-28.299-28.299
					c-3.774-3.774-5.854-8.789-5.854-14.121s2.079-10.347,5.854-14.122l12.117-12.188c-1.165-2.558-2.251-5.207-3.254-7.94H120
					c-11.028,0-20-8.972-20-20v-40c0-11.028,8.972-20,20-20h17.193c1.003-2.733,2.089-5.383,3.253-7.94l-12.138-12.209
					c-3.754-3.754-5.833-8.769-5.833-14.101s2.079-10.347,5.854-14.122l28.299-28.299c3.774-3.774,8.789-5.854,14.121-5.854
					s10.347,2.079,14.122,5.854l12.188,12.117c2.558-1.165,5.207-2.251,7.94-3.254V135c0-11.028,8.972-20,20-20h40
					c11.028,0,20,8.972,20,20v17.193c2.733,1.003,5.383,2.089,7.94,3.253l12.209-12.138c3.754-3.754,8.769-5.833,14.101-5.833
					s10.347,2.079,14.122,5.854l28.299,28.299c3.774,3.774,5.854,8.789,5.854,14.121s-2.079,10.347-5.854,14.122l-12.117,12.188
					c1.165,2.558,2.251,5.207,3.254,7.94H370c11.028,0,20,8.972,20,20v40c0,11.028-8.972,20-20,20h-17.193
					c-1.003,2.733-2.089,5.383-3.253,7.94l12.138,12.209c3.754,3.754,5.833,8.769,5.833,14.101s-2.079,10.347-5.854,14.122
					l-28.299,28.299c-3.774,3.774-8.789,5.854-14.121,5.854s-10.347-2.079-14.122-5.854l-12.188-12.117
					c-2.558,1.165-5.207,2.251-7.94,3.254V385C285,396.028,276.028,405,265,405z M195.103,342.4c1.641,0,3.294,0.403,4.805,1.231
					c5.346,2.931,11.391,5.417,17.966,7.39c4.23,1.269,7.127,5.162,7.127,9.578V385h40v-24.4c0-4.416,2.896-8.31,7.127-9.578
					c6.575-1.973,12.62-4.459,17.966-7.39c3.887-2.132,8.712-1.449,11.858,1.677l17.3,17.199l28.277-28.279l-17.22-17.277
					c-3.126-3.145-3.809-7.971-1.677-11.858c2.931-5.346,5.417-11.391,7.39-17.966c1.269-4.23,5.162-7.127,9.578-7.127H370v-40
					h-24.4c-4.416,0-8.31-2.896-9.578-7.127c-1.973-6.575-4.459-12.62-7.39-17.966c-2.132-3.888-1.449-8.714,1.677-11.858
					l17.199-17.3l-28.279-28.277l-17.277,17.22c-3.146,3.127-7.971,3.809-11.858,1.677c-5.346-2.931-11.391-5.417-17.966-7.39
					c-4.23-1.269-7.127-5.162-7.127-9.578V135h-40v24.4c0,4.416-2.896,8.31-7.127,9.578c-6.575,1.973-12.62,4.459-17.966,7.39
					c-3.888,2.13-8.714,1.449-11.858-1.677l-17.3-17.199l-28.277,28.279l17.22,17.277c3.126,3.145,3.809,7.971,1.677,11.858
					c-2.931,5.346-5.417,11.391-7.39,17.966c-1.269,4.23-5.162,7.127-9.578,7.127H120v40h24.4c4.416,0,8.31,2.896,9.578,7.127
					c1.973,6.575,4.459,12.62,7.39,17.966c2.132,3.888,1.449,8.714-1.677,11.858l-17.199,17.3l28.279,28.277l17.277-17.22
					C189.972,343.397,192.522,342.4,195.103,342.4z"/>
			</g>
		</g>
	</g>
	<g id="XMLID_113_">
		<g>
			<path style="fill:#FFFFFF;" d="M245,220c22.1,0,40,17.9,40,40s-17.9,40-40,40s-40-17.9-40-40S222.9,220,245,220z"/>
		</g>
		<g>
			<g>
				<path style="fill:#231F20;" d="M245,310c-27.57,0-50-22.43-50-50s22.43-50,50-50s50,22.43,50,50S272.57,310,245,310z M245,230
					c-16.542,0-30,13.458-30,30s13.458,30,30,30s30-13.458,30-30S261.542,230,245,230z"/>
			</g>
		</g>
	</g>
	<g>
		<rect x="380" y="150" style="fill:#231F20;" width="20" height="20"/>
	</g>
	<g>
		<rect x="410" y="150" style="fill:#231F20;" width="20" height="20"/>
	</g>
	<g>
		<rect x="440" y="150" style="fill:#231F20;" width="20" height="20"/>
	</g>
	<g>
		<rect x="30" y="350" style="fill:#231F20;" width="20" height="20"/>
	</g>
	<g>
		<rect x="60" y="350" style="fill:#231F20;" width="20" height="20"/>
	</g>
	<g>
		<rect x="90" y="350" style="fill:#231F20;" width="20" height="20"/>
	</g>
	<g>
		<rect x="65" y="430" style="fill:#231F20;" width="360" height="20"/>
	</g>
</g>
</svg>